<svg width="157" height="130" viewBox="0 0 157 130" fill="none" xmlns="http://www.w3.org/2000/svg">
<path d="M5.40758 1L1 5.51765M5.40758 31.8706L1 36.3882M5.40758 62.7412L1 67.2588M5.40758 93.6118L1 98.1294M5.40758 124.482L1 129M35.5261 1L31.1185 5.51765M35.5261 31.8706L31.1185 36.3882M35.5261 62.7412L31.1185 67.2588M35.5261 93.6118L31.1185 98.1294M35.5261 124.482L31.1185 129M65.6445 1L61.237 5.51765M65.6445 31.8706L61.237 36.3882M65.6445 62.7412L61.237 67.2588M65.6445 93.6118L61.237 98.1294M65.6445 124.482L61.237 129M95.763 1L91.3554 5.51765M95.763 31.8706L91.3554 36.3882M95.763 62.7412L91.3554 67.2588M95.763 93.6118L91.3554 98.1294M95.763 124.482L91.3554 129M125.882 1L121.474 5.51765M125.882 31.8706L121.474 36.3882M125.882 62.7412L121.474 67.2588M125.882 93.6118L121.474 98.1294M125.882 124.482L121.474 129M156 1L151.592 5.51765M156 31.8706L151.592 36.3882M156 62.7412L151.592 67.2588M156 93.6118L151.592 98.1294M156 124.482L151.592 129" stroke="#34251F" stroke-width="2"/>
</svg>
