<svg width="1512" height="39" viewBox="0 0 1512 39" fill="none" xmlns="http://www.w3.org/2000/svg">
<path d="M0 19.175C50.4 -4.765 100.8 -4.765 151.2 19.175C201.6 43.115 252 43.115 302.4 19.175C352.8 -4.765 403.2 -4.765 453.6 19.175C504 43.115 554.4 43.115 604.8 19.175C655.2 -4.765 705.6 -4.765 756 19.175C806.4 43.115 856.8 43.115 907.2 19.175C957.6 -4.765 1008 -4.765 1058.4 19.175C1108.8 43.115 1159.2 43.115 1209.6 19.175C1260 -4.765 1310.4 -4.765 1360.8 19.175C1411.2 43.115 1461.6 43.115 1512 19.175" stroke="#4E4842" stroke-opacity="0.15" stroke-width="2" stroke-linejoin="round"/>
</svg>
